<svg xmlns="http://www.w3.org/2000/svg" viewBox="0 0 132 108">
  <mask id="mn_wt" maskUnits="userSpaceOnUse" x="0" y="0" width="132" height="108">
    <rect x="8" y="16" width="116" height="76" rx="14" fill="#fff"></rect>
    <circle cx="50" cy="54" r="22" fill="#000"></circle>
    <circle cx="50" cy="54" r="22" fill="none" stroke="#fff" stroke-width="2.6"></circle>
    <g transform="translate(50,54) scale(0.9)"><path d="M0 -21L-4.95 -4.95L0 0ZM21 0L4.95 -4.95L0 0ZM0 21L4.95 4.95L0 0ZM-21 0L-4.95 4.95L0 0Z" fill="#fff"></path><path d="M0 -21L4.95 -4.95L0 0ZM21 0L4.95 4.95L0 0ZM0 21L-4.95 4.95L0 0ZM-21 0L-4.95 -4.95L0 0Z" fill="#fff"></path></g>
    <circle cx="95" cy="16" r="7" fill="#000"></circle><circle cx="95" cy="92" r="7" fill="#000"></circle>
    <line x1="95" y1="25" x2="95" y2="83" stroke="#000" stroke-width="3.4" stroke-linecap="round" stroke-dasharray="0.1 9"></line>
  </mask>
  <rect x="8" y="16" width="116" height="76" rx="14" fill="#FFFFFF" mask="url(#mn_wt)"></rect></svg>